<svg height="512" viewBox="0 0 64 64" width="512" xmlns="http://www.w3.org/2000/svg"><g id="Bill"><path d="m61 3v51a7 7 0 0 1 -7 7h-43a8 8 0 0 0 8-8v-50l4.2 4 4.19-4 4.2 4 4.2-4 4.2 4 4.2-4 4.2 4 4.2-4 4.2 4z" fill="#fee9ab"/><circle cx="40" cy="25" fill="#ffcd00" r="12"/><path d="m19 32v21a8 8 0 0 1 -16 0v-21z" fill="#ff7956"/><path d="m61.4 2.081a1 1 0 0 0 -1.084.194l-3.516 3.345-3.521-3.345a1 1 0 0 0 -1.379 0l-3.512 3.344-3.51-3.343a1 1 0 0 0 -1.379 0l-3.509 3.343-3.51-3.343a1 1 0 0 0 -1.378 0l-3.51 3.343-3.51-3.343a1 1 0 0 0 -1.379 0l-3.503 3.343-3.5-3.343a1 1 0 0 0 -1.7.724v28h-15a1 1 0 0 0 -1 1v21a9.01 9.01 0 0 0 9 9h43a8.009 8.009 0 0 0 8-8v-51a1 1 0 0 0 -.6-.919zm-57.4 50.919v-20h14v20a7 7 0 0 1 -14 0zm56 1a6.006 6.006 0 0 1 -6 6h-37.356a8.983 8.983 0 0 0 3.356-7v-47.665l2.5 2.389a1 1 0 0 0 1.38 0l3.508-3.343 3.512 3.343a1 1 0 0 0 1.379 0l3.51-3.343 3.511 3.343a1 1 0 0 0 1.379 0l3.508-3.343 3.513 3.343a1 1 0 0 0 1.379 0l3.511-3.344 3.515 3.345a1 1 0 0 0 1.379 0l2.516-2.393z"/><path d="m40 38a13 13 0 1 0 -13-13 13.015 13.015 0 0 0 13 13zm0-24a11 11 0 1 1 -11 11 11.013 11.013 0 0 1 11-11z"/><path d="m40 30a2 2 0 0 1 -2-2h-2a4 4 0 0 0 3 3.858v2.142h2v-2.142a3.992 3.992 0 0 0 -1-7.858 2 2 0 1 1 2-2h2a4 4 0 0 0 -3-3.858v-2.142h-2v2.142a3.992 3.992 0 0 0 1 7.858 2 2 0 0 1 0 4z"/><path d="m24 42h4v2h-4z"/><path d="m30 42h8v2h-8z"/><path d="m40 42h8v2h-8z"/><path d="m50 42h8v2h-8z"/><path d="m24 48h10v2h-10z"/><path d="m36 48h2v2h-2z"/><path d="m40 48h12v2h-12z"/><path d="m54 48h4v2h-4z"/><path d="m24 54h2v2h-2z"/><path d="m28 54h10v2h-10z"/><path d="m40 54h4v2h-4z"/><path d="m46 54h12v2h-12z"/><path d="m24 12h6v2h-6z"/><path d="m24 16h2v2h-2z"/><path d="m50 12h6v2h-6z"/><path d="m54 16h2v2h-2z"/><path d="m24 36h6v2h-6z"/><path d="m24 32h2v2h-2z"/><path d="m50 36h6v2h-6z"/><path d="m54 32h2v2h-2z"/></g></svg>