<svg id="Layer_3" enable-background="new 0 0 64 64" height="512" viewBox="0 0 64 64" width="512" xmlns="http://www.w3.org/2000/svg"><g><path d="m6 62c-2.209 0-4-1.791-4-4v-56l7 3 10-3 10 3 7-3v60" fill="#c7e2fc"/><path d="m10 18h52v26h-52z" fill="#669e4f"/><path d="m53 40h-34c0-2.761-2.239-5-5-5v-8c2.761 0 5-2.239 5-5h34c0 2.761 2.239 5 5 5v8c-2.761 0-5 2.239-5 5z" fill="#96cc7f"/><circle cx="20" cy="31" fill="#78b75b" r="2"/><circle cx="52" cy="31" fill="#78b75b" r="2"/><path d="m10 58v-2h34v2c0 2.209-1.791 4-4 4h-34c2.209 0 4-1.791 4-4z" fill="#a1cdfb"/><path d="m57 21h2v2h-2z" fill="#96cc7f"/><path d="m57 39h2v2h-2z" fill="#96cc7f"/><path d="m13 21h2v2h-2z" fill="#96cc7f"/><path d="m13 39h2v2h-2z" fill="#96cc7f"/><path d="m36 26c1.103 0 2 .897 2 2h2c0-1.858-1.28-3.411-3-3.858v-2.142h-2v2.142c-1.72.447-3 2-3 3.858 0 2.206 1.794 4 4 4 1.103 0 2 .897 2 2s-.897 2-2 2-2-.897-2-2h-2c0 1.858 1.28 3.411 3 3.858v2.142h2v-2.142c1.72-.447 3-2 3-3.858 0-2.206-1.794-4-4-4-1.103 0-2-.897-2-2s.897-2 2-2z" fill="#fff"/><g fill="#8892a0"><path d="m5 8h13v2h-13z"/><path d="m5 12h13v2h-13z"/><path d="m20 8h13v2h-13z"/><path d="m20 12h13v2h-13z"/><path d="m5 47h13v2h-13z"/><path d="m5 51h13v2h-13z"/><path d="m20 47h13v2h-13z"/><path d="m20 51h13v2h-13z"/></g></g></svg>