<svg height="464pt" viewBox="0 -16 464.00384 464" width="464pt" xmlns="http://www.w3.org/2000/svg"><path d="m16 160h112v88h-112zm0 0" fill="#85bc94"/><path d="m16 232h112v16h-112zm0 0" fill="#6b9777"/><path d="m336 216h112v96h-112zm0 0" fill="#85bc94"/><path d="m448 328h-112v-32h112zm0 0" fill="#7db08b"/><path d="m336 320h112v16h-112zm0 0" fill="#6b9777"/><path d="m408 256c0 8.839844-7.164062 16-16 16s-16-7.160156-16-16c0-8.835938 7.164062-16 16-16s16 7.164062 16 16zm0 0" fill="#6b9777"/><path d="m88 200c0 8.839844-7.164062 16-16 16s-16-7.160156-16-16c0-8.835938 7.164062-16 16-16s16 7.164062 16 16zm0 0" fill="#6b9777"/><path d="m463.480469 325.152344-63.480469-166.621094v-22.53125c0-4.417969-3.582031-8-8-8s-8 3.582031-8 8v22.53125l-63.480469 166.621094c-1.574219 4.132812.5 8.757812 4.632813 10.328125 4.128906 1.574219 8.753906-.5 10.328125-4.628907l56.519531-148.378906 56.519531 148.378906c1.574219 4.128907 6.199219 6.203126 10.328125 4.628907 4.132813-1.570313 6.207032-6.195313 4.632813-10.328125zm0 0" fill="#b9b9b9"/><path d="m80 102.21875v-30.21875c0-4.417969-3.582031-8-8-8s-8 3.582031-8 8v30.21875l-63.199219 134.398438c-1.882812 4-.167969 8.765624 3.832031 10.648437 3.996094 1.882813 8.765626.167969 10.648438-3.832031l56.71875-120.640625 56.800781 120.617187c1.882813 4 6.648438 5.714844 10.648438 3.832032 3.996093-1.882813 5.714843-6.648438 3.832031-10.648438zm0 0" fill="#b9b9b9"/><g fill="#f7ba61"><path d="m384 8h16v16h-16zm0 0"/><path d="m384 56h16v16h-16zm0 0"/><path d="m408 32h16v16h-16zm0 0"/><path d="m360 32h16v16h-16zm0 0"/></g><path d="m216 376 32 8v-368c0-8.835938-7.164062-16-16-16s-16 7.164062-16 16zm0 0" fill="#f3af3e"/><path d="m424.433594 143.652344-391.445313-82.28125c-8.648437-1.820313-14.183593-10.304688-12.367187-18.949219 1.820312-8.648437 10.300781-14.1875 18.949218-12.367187l391.445313 82.28125c8.648437 1.820312 14.183594 10.304687 12.367187 18.949218-1.816406 8.648438-10.300781 14.1875-18.949218 12.367188zm0 0" fill="#fbb540"/><path d="m272 88c0 22.09375-17.910156 40-40 40s-40-17.90625-40-40c0-22.089844 17.910156-40 40-40s40 17.910156 40 40zm0 0" fill="#ea9d2d"/><path d="m432 376h-80c-17.671875 0-32-14.324219-32-32v-16h144v16c0 17.675781-14.328125 32-32 32zm0 0" fill="#5d9aa4"/><path d="m112 288h-80c-17.671875 0-32-14.324219-32-32v-16h144v16c0 17.675781-14.328125 32-32 32zm0 0" fill="#5d9aa4"/><path d="m216 344h32v24h-32zm0 0" fill="#e6a63b"/><path d="m184 368h96v40h-96zm0 0" fill="#da922a"/><path d="m184 384h96v24h-96zm0 0" fill="#d18d28"/><path d="m320 432h-172.375v-32h172.375zm0 0" fill="#c38325"/></svg>