<?xml version="1.0" encoding="iso-8859-1"?>
<!-- Generator: Adobe Illustrator 19.0.0, SVG Export Plug-In . SVG Version: 6.00 Build 0)  -->
<svg version="1.1" id="Capa_1" xmlns="http://www.w3.org/2000/svg" xmlns:xlink="http://www.w3.org/1999/xlink" x="0px" y="0px"
	 viewBox="0 0 512 512" style="enable-background:new 0 0 512 512;" xml:space="preserve">
<polygon style="fill:#95A5A5;" points="512,88.276 0,88.276 256,0 "/>
<polygon style="fill:#ECF0F1;" points="494.345,476.69 494.345,441.379 17.655,441.379 17.655,476.69 0,476.69 0,512 512,512 
	512,476.69 "/>
<rect x="35.31" y="406.069" style="fill:#95A5A5;" width="70.621" height="35.31"/>
<rect x="17.655" y="88.276" style="fill:#ECF0F1;" width="476.69" height="35.31"/>
<rect x="35.31" y="123.586" style="fill:#95A5A5;" width="70.621" height="35.31"/>
<rect x="52.966" y="158.897" style="fill:#ECF0F1;" width="35.31" height="247.172"/>
<g>
	<rect x="158.897" y="406.069" style="fill:#95A5A5;" width="70.621" height="35.31"/>
	<rect x="158.897" y="123.586" style="fill:#95A5A5;" width="70.621" height="35.31"/>
</g>
<rect x="176.552" y="158.897" style="fill:#ECF0F1;" width="35.31" height="247.172"/>
<g>
	<rect x="282.483" y="406.069" style="fill:#95A5A5;" width="70.621" height="35.31"/>
	<rect x="282.483" y="123.586" style="fill:#95A5A5;" width="70.621" height="35.31"/>
</g>
<rect x="300.138" y="158.897" style="fill:#ECF0F1;" width="35.31" height="247.172"/>
<g>
	<rect x="406.069" y="406.069" style="fill:#95A5A5;" width="70.621" height="35.31"/>
	<rect x="406.069" y="123.586" style="fill:#95A5A5;" width="70.621" height="35.31"/>
</g>
<rect x="423.724" y="158.897" style="fill:#ECF0F1;" width="35.31" height="247.172"/>
<g>
	<path style="fill:#95A5A5;" d="M326.621,485.517H256c-4.882,0-8.828-3.946-8.828-8.828c0-4.882,3.946-8.828,8.828-8.828h70.621
		c4.882,0,8.828,3.946,8.828,8.828C335.448,481.571,331.502,485.517,326.621,485.517z"/>
	<path style="fill:#95A5A5;" d="M406.069,467.862c-4.882,0-8.828,3.946-8.828,8.828c0,4.882,3.946,8.828,8.828,8.828H512v-8.828
		h-17.655v-8.828H406.069z"/>
	<path style="fill:#95A5A5;" d="M176.552,485.517c4.882,0,8.828-3.946,8.828-8.828c0-4.882-3.946-8.828-8.828-8.828H17.655v8.828H0
		v8.828H176.552z"/>
</g>
<g>
</g>
<g>
</g>
<g>
</g>
<g>
</g>
<g>
</g>
<g>
</g>
<g>
</g>
<g>
</g>
<g>
</g>
<g>
</g>
<g>
</g>
<g>
</g>
<g>
</g>
<g>
</g>
<g>
</g>
</svg>
